<svg width="24" height="24" fill="none" xmlns="http://www.w3.org/2000/svg"><path fill-rule="evenodd" clip-rule="evenodd" d="M17.737 11.866c.584-.637.132-1.664-.732-1.664h-3.204l1.168-6.617c.088-.5-.543-.795-.87-.406l-7.864 9.363a.993.993 0 0 0 .76 1.632h2.834l-1.17 6.236c-.091.49.517.795.855.427l8.223-8.971zm-1.86-.175h-3.852l.833-4.718-4.798 5.711h3.564l-.86 4.585 5.112-5.578z" fill="#E61E00"/><path fill-rule="evenodd" clip-rule="evenodd" d="M15.876 11.691h-3.85l.832-4.718-4.798 5.712h3.564l-.86 4.583 5.112-5.577z" fill="#E61E00"/></svg>