<svg width="102" height="32" viewBox="0 0 109 34" fill="none" xmlns="http://www.w3.org/2000/svg"><g clip-path="url(#clip0)"><g filter="url(#filter0_d)"><path fill-rule="evenodd" clip-rule="evenodd" d="M7.628 0h93.155c.287 0 .579 0 .867.002.243.001.493.006.737.01a10.44 10.44 0 0 1 1.6.141c.531.09 1.046.26 1.527.502a5.175 5.175 0 0 1 2.239 2.24c.241.479.408.992.495 1.522.089.53.139 1.065.149 1.602.003.245.003.491.003.736.006.29.006.581.006.874v16.743c0 .295 0 .584-.006.875 0 .248 0 .489-.003.737-.01.537-.06 1.072-.149 1.602a5.31 5.31 0 0 1-.495 1.523 5.151 5.151 0 0 1-.945 1.292c-.379.381-.815.7-1.294.943a5.447 5.447 0 0 1-1.527.504c-.529.088-1.064.135-1.6.142-.244.005-.494.008-.737.008-.288.002-.58.002-.867.002H7.628c-.294 0-.583 0-.876-.002-.245 0-.488-.003-.735-.008a10.752 10.752 0 0 1-1.603-.142 5.363 5.363 0 0 1-1.521-.504 5.022 5.022 0 0 1-1.295-.943 4.969 4.969 0 0 1-.943-1.292 5.271 5.271 0 0 1-.5-1.523 10.368 10.368 0 0 1-.143-1.602c-.007-.248-.008-.489-.012-.737V6.756l.006-.468.006-.27c.006-.536.054-1.071.143-1.6a5.31 5.31 0 0 1 .5-1.523A5.15 5.15 0 0 1 4.413.154C4.944.064 5.48.017 6.018.011l.471-.008.264-.002L7.628 0z" fill="#fff"/></g><path fill-rule="evenodd" clip-rule="evenodd" d="M39.84 10.16c.32.24.72.32 1.04.32.16 0 .32 0 .56-.08.072 0 .144-.016.223-.034.097-.022.205-.046.337-.046.16-.08.32-.24.4-.4.08-.16.16-.4.16-.64s-.08-.48-.16-.64a.82.82 0 0 0-.4-.48c-.16-.16-.32-.24-.48-.32a3.9 3.9 0 0 0-.56-.24c-.32-.08-.56-.16-.72-.32-.16-.16-.24-.32-.24-.48 0-.24.08-.4.16-.56.05-.017.097-.033.141-.05.17-.06.31-.11.499-.11.24 0 .48 0 .64.16.16.08.24.24.32.4l.56-.24c-.08-.24-.24-.4-.48-.64s-.56-.32-.96-.32c-.4 0-.8.16-1.04.4-.24.24-.4.56-.4.88 0 .32.08.56.32.8.24.16.56.32.96.48.4.08.72.24.88.4.24.16.32.4.32.64s-.16.4-.32.56c-.24.16-.48.24-.72.24s-.48-.08-.72-.24c-.16-.16-.32-.4-.4-.64l-.56.24c.08.4.32.72.64.96zm-6.8-4.56v4.8h1.44c.72 0 1.36-.24 1.76-.64.4-.48.64-1.04.64-1.76s-.16-1.28-.64-1.76c-.4-.4-1.04-.64-1.76-.64h-1.44zm1.44 4.24h-.88V6.16h.88c.48 0 .96.16 1.28.48.32.32.48.8.48 1.36s-.16 1.04-.48 1.36c-.32.32-.72.48-1.28.48zM8 24.232V6.97c0-.602.356-1.123.873-1.37l10.184 9.998L8.869 25.6A1.52 1.52 0 0 1 8 24.232zM22.349 18.7l-11.142 6.318 8.787-8.63L22.35 18.7zm3.439-4.305c.372.278.612.715.612 1.206a1.5 1.5 0 0 1-.595 1.193l-2.376 1.336-2.6-2.532 2.598-2.53 2.361 1.327zM11.123 6.181l11.141 6.318-2.354 2.313-8.787-8.631zM54.48 17.44c-1.92 0-3.44 1.44-3.44 3.44 0 1.92 1.52 3.44 3.44 3.44s3.44-1.44 3.44-3.44c0-2.08-1.52-3.44-3.44-3.44zm0 5.44c-1.04 0-1.92-.88-1.92-2.08 0-1.2.88-2.08 1.92-2.08s1.92.8 1.92 2.08c0 1.2-.88 2.08-1.92 2.08zm-7.44-5.44c-1.92 0-3.44 1.44-3.44 3.44 0 1.92 1.52 3.44 3.44 3.44s3.44-1.44 3.44-3.44c0-2.08-1.52-3.44-3.44-3.44zm0 5.44c-1.04 0-1.92-.88-1.92-2.08 0-1.2.88-2.08 1.92-2.08s1.92.8 1.92 2.08c0 1.2-.88 2.08-1.92 2.08zm-8.88-4.4v1.44h3.44c-.08.8-.4 1.44-.8 1.84-.48.48-1.28 1.04-2.64 1.04-2.16 0-3.76-1.68-3.76-3.84s1.68-3.84 3.76-3.84c1.12 0 2 .48 2.64 1.04l1.04-1.04c-.88-.8-2-1.44-3.6-1.44-2.88 0-5.36 2.4-5.36 5.28 0 2.88 2.48 5.28 5.36 5.28 1.6 0 2.72-.48 3.68-1.52.96-.96 1.28-2.32 1.28-3.36 0-.32 0-.64-.08-.88h-4.96zm36.32 1.12c-.32-.8-1.12-2.16-2.88-2.16-1.76 0-3.2 1.36-3.2 3.44 0 1.92 1.44 3.44 3.36 3.44 1.52 0 2.48-.96 2.8-1.52l-1.12-.8c-.4.56-.88.96-1.68.96-.8 0-1.28-.32-1.68-1.04L74.64 20l-.16-.4zm-4.64 1.12c0-1.28 1.04-2 1.76-2 .56 0 1.12.32 1.28.72l-3.04 1.28zM66.08 24h1.52V14h-1.52v10zm-2.4-5.84c-.4-.4-1.04-.8-1.84-.8-1.68 0-3.28 1.52-3.28 3.44s1.52 3.36 3.28 3.36c.8 0 1.44-.4 1.76-.8h.08v.48c0 1.28-.72 2-1.84 2-.88 0-1.52-.64-1.68-1.2l-1.28.56c.4.88 1.36 2 3.04 2 1.76 0 3.2-1.04 3.2-3.52V17.6h-1.44v.56zm-1.76 4.72C60.88 22.88 60 22 60 20.8c0-1.2.88-2.08 1.92-2.08s1.84.88 1.84 2.08c0 1.2-.8 2.08-1.84 2.08zM81.44 14h-3.6v10h1.52v-3.76h2.08c1.68 0 3.28-1.2 3.28-3.12 0-1.92-1.6-3.12-3.28-3.12zm.08 4.8h-2.16v-3.44h2.16c1.12 0 1.76.96 1.76 1.68-.08.88-.72 1.76-1.76 1.76zm9.2-1.44c-1.12 0-2.24.48-2.64 1.52l1.36.56c.32-.56.8-.72 1.36-.72.8 0 1.52.48 1.6 1.28v.08c-.24-.16-.88-.4-1.52-.4-1.44 0-2.88.8-2.88 2.24 0 1.36 1.2 2.24 2.48 2.24 1.04 0 1.52-.48 1.92-.96h.08v.8h1.44v-3.84c-.16-1.76-1.52-2.8-3.2-2.8zm-.16 5.52c-.48 0-1.2-.24-1.2-.88 0-.8.88-1.04 1.6-1.04.575 0 .892.13 1.24.272l.12.048c-.16.96-.96 1.6-1.76 1.6zm8.4-5.28l-1.68 4.32h-.08l-1.76-4.32h-1.6l2.64 6.08-1.52 3.36h1.52l4.08-9.44h-1.6zM85.52 24h1.52V14h-1.52v10zM37.76 5.6h.64v4.8h-.64V5.6zM44 10.4h-.64V5.6h1.6c.4 0 .72.16 1.04.4.32.24.48.64.48 1.04s-.16.72-.48 1.04c-.32.24-.64.4-1.04.4H44v1.92zm0-2.56h1.04c.24 0 .48-.08.64-.24.16-.16.24-.4.24-.56 0-.24-.08-.4-.24-.56-.16-.16-.4-.24-.64-.24H44v1.6zm5.44 2.64c.72 0 1.28-.24 1.76-.72s.72-1.04.72-1.76-.24-1.28-.72-1.76-1.04-.72-1.76-.72-1.28.24-1.76.72-.72 1.04-.72 1.76.24 1.28.72 1.76 1.04.72 1.76.72zm0-.56c-.48 0-.96-.24-1.28-.56-.4-.32-.56-.8-.56-1.36s.24-1.04.56-1.36c.32-.4.8-.56 1.28-.56s.96.24 1.28.56c.4.32.56.8.56 1.36s-.24 1.04-.56 1.36c-.32.4-.8.56-1.28.56zm3.28-4.32h.72l2.32 3.76V5.6h.64v4.8h-.64l-2.48-3.92v3.92h-.56V5.6zm5.44 0h-.64v4.8h.64V5.6zm1.12 0h1.76c.4 0 .72.16.96.4.24.24.4.56.4.96 0 .19-.05.33-.11.499-.017.044-.033.09-.05.14a.82.82 0 0 1-.48.4c.24.08.4.24.56.4.16.16.24.4.24.72 0 .4-.16.72-.4.96-.32.24-.64.4-1.04.4h-1.84V5.6zm.64 2.08h1.12c.24 0 .4-.08.56-.24.16-.16.24-.32.24-.48 0-.122-.093-.291-.173-.436A3.683 3.683 0 0 1 61.6 6.4a.726.726 0 0 0-.56-.24h-1.12v1.52zM60 9.84h1.2c.24 0 .4-.08.56-.24.16-.16.24-.32.24-.56 0-.16-.08-.4-.24-.56a.726.726 0 0 0-.56-.24H60v1.6zm4-4.24h-.64v4.8h2.72v-.56H64V5.6zm5.68.56h-2.16v1.52h2v.56h-2v1.52h2.16v.64h-2.8V5.6h2.8v.56zm2.64 4c.32.24.72.32 1.04.32h.56l.48-.24c.16-.08.32-.24.4-.4.08-.16.16-.4.16-.64s-.08-.48-.16-.64a.82.82 0 0 0-.4-.48c-.16-.16-.32-.24-.48-.32a3.9 3.9 0 0 0-.56-.24c-.32-.08-.56-.16-.72-.32-.16-.16-.24-.32-.24-.48 0-.16.08-.32.24-.48a6.43 6.43 0 0 0 .141-.05c.17-.06.31-.11.499-.11.24 0 .48 0 .64.16.16.08.24.24.32.4l.56-.24c-.08-.24-.24-.4-.48-.64s-.56-.32-.96-.32c-.4 0-.8.16-1.04.4-.24.24-.4.56-.4.88 0 .32.08.56.32.8.24.16.56.32.96.48.4.08.72.24.88.4.24.16.32.4.32.64s-.16.4-.32.56c-.24.16-.48.24-.72.24s-.48-.08-.72-.24c-.16-.16-.32-.4-.4-.64l-.56.24c.08.4.32.72.64.96zm5.2.32c-.56 0-.96-.16-1.28-.56-.32-.32-.48-.8-.48-1.36V5.6h.64v3.04c0 .4.08.72.32.96.16.24.48.32.88.32s.64-.08.88-.32c.16-.24.32-.56.32-.96V5.6h.64v3.04c0 .56-.16 1.04-.48 1.36-.4.32-.88.48-1.44.48zm2.8-4.88v4.8h.64v-2h.72l1.28 1.92h.72L82.32 8.4c.32-.08.56-.24.8-.48s.32-.56.32-.88c0-.4-.16-.8-.48-1.04-.32-.24-.64-.4-1.04-.4h-1.6zm1.6 2.24h-1.04V6.16h1.04c.24 0 .48.08.64.24.16.16.24.32.24.56 0 .24-.08.48-.24.64-.16.16-.4.24-.64.24z" fill="#007A97"/></g><defs><filter id="filter0_d" x="-6" y="-4" width="120.406" height="44" filterUnits="userSpaceOnUse" color-interpolation-filters="sRGB"><feFlood flood-opacity="0" result="BackgroundImageFix"/><feColorMatrix in="SourceAlpha" values="0 0 0 0 0 0 0 0 0 0 0 0 0 0 0 0 0 0 127 0"/><feOffset dy="2"/><feGaussianBlur stdDeviation="3"/><feColorMatrix values="0 0 0 0 0.117647 0 0 0 0 0.117647 0 0 0 0 0.117647 0 0 0 0.16 0"/><feBlend in2="BackgroundImageFix" result="effect1_dropShadow"/><feBlend in="SourceGraphic" in2="effect1_dropShadow" result="shape"/></filter><clipPath id="clip0"><path fill="#fff" d="M0 0h108.8v32H0z"/></clipPath></defs></svg>