<svg width="30" height="30" fill="none" xmlns="http://www.w3.org/2000/svg"><path fill-rule="evenodd" clip-rule="evenodd" d="M27.667 15c0 6.996-5.672 12.667-12.667 12.667-6.996 0-12.667-5.67-12.667-12.667 0-6.996 5.671-12.666 12.668-12.666 6.994 0 12.666 5.67 12.666 12.666zm2 0c0 8.1-6.567 14.667-14.667 14.667S.334 23.1.334 15C.333 6.9 6.9.333 15.001.333 23.1.333 29.666 6.9 29.666 15zm-8.396-3.542a6.202 6.202 0 0 0 1.729-.45 5.974 5.974 0 0 1-1.5 1.482c.004.122.008.245.008.37 0 3.78-3.028 8.14-8.562 8.14a8.834 8.834 0 0 1-4.613-1.286c.236.028.475.04.717.04 1.41 0 2.708-.456 3.738-1.224-1.317-.023-2.428-.85-2.811-1.987a3.163 3.163 0 0 0 1.36-.05c-1.378-.262-2.414-1.418-2.414-2.805v-.035a3.13 3.13 0 0 0 1.362.358c-.807-.514-1.338-1.389-1.338-2.382 0-.524.148-1.017.408-1.439 1.483 1.731 3.7 2.87 6.201 2.99a2.798 2.798 0 0 1-.078-.652c0-1.581 1.347-2.862 3.01-2.862.866 0 1.647.348 2.196.904a6.218 6.218 0 0 0 1.91-.694 2.892 2.892 0 0 1-1.323 1.582z" fill="#fff"/></svg>