<svg width="30" height="30" fill="none" xmlns="http://www.w3.org/2000/svg"><path fill-rule="evenodd" clip-rule="evenodd" d="M27.667 15c0 6.996-5.672 12.667-12.667 12.667-6.996 0-12.667-5.67-12.667-12.667 0-6.996 5.671-12.666 12.668-12.666 6.995 0 12.666 5.67 12.666 12.666zm2 0c0 8.1-6.567 14.667-14.667 14.667S.334 23.1.334 15C.333 6.9 6.9.333 15.001.333 23.1.333 29.666 6.9 29.666 15zm-7.452-3.005s-.116-1.047-.556-1.504c-.508-.548-1.071-.608-1.384-.641a4.866 4.866 0 0 1-.085-.01c-2.052-.153-5.13-.174-5.13-.174h-.007s-3.086.021-5.138.174a5.605 5.605 0 0 1-.074.009c-.311.034-.888.098-1.403.652-.44.458-.596 1.5-.596 1.5s-.175 1.222-.175 2.445v1.146c0 1.222.174 2.445.174 2.445s.172 1.04.61 1.498c.464.5 1.046.572 1.418.618.076.009.143.017.199.028 1.173.116 4.985.152 4.985.152s3.077-.004 5.13-.157c.028-.004.06-.007.095-.01.314-.032.865-.088 1.367-.63.44-.458.57-1.5.57-1.5s.118-1.222.118-2.445v-1.145c0-1.223-.118-2.45-.118-2.45zm-8.741 5.079v-3.963l3.851 1.981-3.851 1.982z" fill="#fff"/></svg>