<svg width="102" height="32" fill="none" xmlns="http://www.w3.org/2000/svg"><g clip-path="url(#clip0)"><g filter="url(#filter0_d)"><path d="M93.583 0H7.628c-.294 0-.583 0-.876.002-.245.001-.488.006-.735.01-.537.006-1.073.053-1.603.141-.53.09-1.042.259-1.521.502A5.15 5.15 0 0 0 .155 4.417 10.37 10.37 0 0 0 .012 6.02c-.007.245-.008.491-.012.737v18.491c.004.248.005.489.012.738.006.536.054 1.072.143 1.601a5.27 5.27 0 0 0 .5 1.524c.243.478.561.914.943 1.29.378.383.816.7 1.295.944.479.243.991.413 1.52.505.53.087 1.067.134 1.604.14.247.006.49.01.735.01l.876.001h85.955c.287 0 .58 0 .867-.002.243 0 .493-.003.737-.008a10.618 10.618 0 0 0 1.6-.141 5.445 5.445 0 0 0 1.527-.505 5.022 5.022 0 0 0 1.294-.943c.38-.378.699-.814.945-1.291a5.31 5.31 0 0 0 .495-1.524c.089-.53.139-1.065.149-1.601.003-.249.003-.49.003-.738.006-.29.006-.58.006-.875V7.629c0-.293 0-.584-.006-.873 0-.246 0-.492-.003-.737-.01-.537-.06-1.072-.149-1.602a5.306 5.306 0 0 0-.495-1.522 5.174 5.174 0 0 0-2.24-2.24 5.414 5.414 0 0 0-1.526-.502 10.435 10.435 0 0 0-1.6-.141c-.243-.004-.493-.009-.737-.01C94.162 0 93.87 0 93.583 0z" fill="#fff"/></g><path fill-rule="evenodd" clip-rule="evenodd" d="M33.62 11.593a1.46 1.46 0 0 0 .592-.804h-.685a.864.864 0 0 1-.857.437.952.952 0 0 1-.959-1.033v-.04h2.544v-.247c0-1.132-.605-1.816-1.607-1.816a1.662 1.662 0 0 0-1.661 1.882 1.635 1.635 0 0 0 1.664 1.859c.34.037.684-.047.97-.238zm-.09-1.965h-1.819a.921.921 0 0 1 .933-.933.87.87 0 0 1 .887.933zm-.48-3.21l-.83 1.139h.735l.93-1.138h-.834zm-14.526.558a3.897 3.897 0 0 1-.892 2.793 3.277 3.277 0 0 1-2.59 1.224 3.71 3.71 0 0 1 .916-2.689 3.966 3.966 0 0 1 2.566-1.328zm1.809 7.362a3.96 3.96 0 0 0-.516 1.903 3.826 3.826 0 0 0 2.336 3.52 8.77 8.77 0 0 1-1.215 2.473c-.715 1.07-1.466 2.116-2.656 2.135-.567.014-.949-.15-1.347-.32-.416-.176-.849-.36-1.526-.36-.719 0-1.171.19-1.607.373-.377.16-.742.313-1.257.334-1.134.042-2-1.142-2.742-2.203-1.482-2.165-2.636-6.102-1.089-8.78a4.252 4.252 0 0 1 3.579-2.183c.643-.013 1.26.235 1.801.452.414.166.783.315 1.085.315.266 0 .625-.143 1.044-.309.659-.261 1.465-.581 2.287-.495a4.052 4.052 0 0 1 3.193 1.726 3.96 3.96 0 0 0-1.37 1.418zm8.191-2.576v-4.1h-1.501v-.674h3.741v.675h-1.498v4.098h-.742zm6.718-5.01h.711v5.01h-.71v-5.01zm4.333 4.841c.286-.19.495-.475.591-.804h-.684a.863.863 0 0 1-.857.437.952.952 0 0 1-.96-1.033v-.04h2.544v-.247c0-1.132-.604-1.816-1.607-1.816a1.662 1.662 0 0 0-1.66 1.882 1.638 1.638 0 0 0 1.663 1.859c.342.037.685-.047.97-.238zm-.09-1.965h-1.82a.921.921 0 0 1 .933-.933.87.87 0 0 1 .887.933zm-.48-3.21l-.83 1.139h.734l.93-1.138h-.834zm4.518 2.919a.805.805 0 0 0-.851-.612c-.595 0-.96.456-.96 1.224 0 .78.368 1.247.96 1.247a.783.783 0 0 0 .85-.592h.692a1.409 1.409 0 0 1-1.538 1.227 1.654 1.654 0 0 1-1.69-1.882 1.643 1.643 0 0 1 1.686-1.86 1.422 1.422 0 0 1 1.542 1.248h-.691zm2.34-2.584h-.705v5.008h.71V9.659a.842.842 0 0 1 .908-.914c.502 0 .77.292.77.867v2.15h.712V9.436a1.186 1.186 0 0 0-1.24-1.343 1.109 1.109 0 0 0-1.1.645h-.056V6.753zm3.289 3.99c0-.649.482-1.023 1.34-1.076l.975-.056v-.31c0-.381-.251-.596-.737-.596-.397 0-.672.146-.751.4h-.688c.072-.618.654-1.015 1.472-1.015.903 0 1.412.45 1.412 1.21v2.461h-.684v-.506h-.057a1.212 1.212 0 0 1-1.082.566 1.088 1.088 0 0 1-1.2-1.078zm2.315-.308v-.301l-.88.056c-.496.033-.72.202-.72.52 0 .324.28.512.667.512a.85.85 0 0 0 .933-.787zm2.505-2.276h-.684v3.602h.71V9.636a.843.843 0 0 1 .92-.847c.134 0 .267.015.397.043V8.13a1.495 1.495 0 0 0-.317-.03.977.977 0 0 0-.973.613h-.053V8.16zm1.997 3.963h.727c.06.261.361.43.841.43.592 0 .943-.281.943-.757v-.692h-.053a1.211 1.211 0 0 1-1.112.605c-.92 0-1.488-.71-1.488-1.79 0-1.097.575-1.819 1.495-1.819a1.248 1.248 0 0 1 1.131.636h.057v-.576h.681v3.632c0 .824-.645 1.347-1.664 1.347-.9 0-1.482-.404-1.558-1.016zm2.524-2.207c0-.717-.37-1.177-.976-1.177-.612 0-.956.46-.956 1.177 0 .718.344 1.178.956 1.178.61 0 .976-.456.976-1.178zm4.286 1.678c.285-.19.494-.475.591-.804h-.684a.864.864 0 0 1-.857.437.952.952 0 0 1-.96-1.033v-.04h2.544v-.247c0-1.132-.605-1.816-1.607-1.816a1.662 1.662 0 0 0-1.661 1.882 1.635 1.635 0 0 0 1.664 1.859c.341.037.684-.047.97-.238zm-.09-1.965h-1.82a.921.921 0 0 1 .933-.933.87.87 0 0 1 .887.933zm1.679-1.469h.684v.553h.053a.977.977 0 0 1 .973-.613c.106-.001.213.009.317.03v.702a1.948 1.948 0 0 0-.397-.043.844.844 0 0 0-.92.847v2.127h-.71V8.159zm6.084-.06c-.91 0-1.495.722-1.495 1.86 0 1.14.579 1.862 1.495 1.862a1.25 1.25 0 0 0 1.131-.629h.056v.57h.682v-5.01h-.711v1.98h-.053a1.188 1.188 0 0 0-1.105-.633zm.202 3.084c-.603 0-.963-.46-.963-1.224 0-.758.364-1.22.963-1.22.595 0 .97.472.97 1.223 0 .754-.371 1.22-.97 1.22zm2.628-.44c0-.649.483-1.023 1.34-1.076l.975-.056v-.31c0-.381-.251-.596-.737-.596-.397 0-.672.146-.751.4h-.688c.072-.618.654-1.015 1.472-1.015.903 0 1.412.45 1.412 1.21v2.461h-.684v-.506h-.056a1.212 1.212 0 0 1-1.082.566 1.088 1.088 0 0 1-1.201-1.078zm2.315-.308v-.301l-.88.056c-.495.033-.72.202-.72.52 0 .324.28.512.668.512a.848.848 0 0 0 .932-.787zm2.506-2.276h-.685v3.602h.711V9.654a.827.827 0 0 1 .86-.913c.526 0 .778.288.778.867v2.153h.71V9.43a1.172 1.172 0 0 0-1.246-1.34 1.078 1.078 0 0 0-1.075.642h-.053V8.16zm4.791-.07c.81 0 1.34.378 1.41 1.013h-.683c-.065-.265-.324-.433-.727-.433-.397 0-.698.188-.698.47 0 .214.182.35.572.44l.599.138c.685.159 1.006.454 1.006.983 0 .678-.632 1.131-1.492 1.131-.857 0-1.416-.387-1.479-1.025h.712a.73.73 0 0 0 .783.45c.443 0 .758-.2.758-.487 0-.215-.169-.354-.53-.44l-.628-.146c-.685-.162-1.002-.47-1.002-1.005 0-.639.585-1.088 1.4-1.088zM62.843 21.62c.11.986 1.067 1.633 2.375 1.633 1.253 0 2.154-.647 2.154-1.536 0-.77-.543-1.232-1.831-1.549l-1.287-.31c-1.825-.441-2.672-1.294-2.672-2.678 0-1.715 1.494-2.892 3.615-2.892 2.1 0 3.538 1.177 3.587 2.892h-1.5c-.09-.992-.91-1.59-2.108-1.59s-2.017.605-2.017 1.486c0 .703.523 1.116 1.804 1.432l1.094.27c2.039.481 2.886 1.3 2.886 2.753 0 1.859-1.48 3.023-3.836 3.023-2.203 0-3.69-1.137-3.786-2.933h1.522zm-34.684-7.166h1.487v9.934H28.16v-9.934zm3.28 3.635l.812-3.635h1.445l-.984 3.635h-1.274zm4.092 3.614h3.786l.909 2.686h1.631l-3.587-9.935h-1.666l-3.587 9.934h1.604l.91-2.685zm3.393-1.239h-3.001l1.48-4.358h.042l1.48 4.358zm10.678.303c0 2.251-1.204 3.697-3.022 3.697a2.456 2.456 0 0 1-2.28-1.267h-.034v3.588H42.78v-9.64h1.439v1.205h.027a2.57 2.57 0 0 1 2.306-1.28c1.839 0 3.05 1.453 3.05 3.697zm-1.528 0c0-1.466-.758-2.43-1.914-2.43-1.136 0-1.9.984-1.9 2.43 0 1.46.764 2.437 1.9 2.437 1.156 0 1.914-.957 1.914-2.437zm6.477 3.697c1.818 0 3.023-1.446 3.023-3.697 0-2.244-1.212-3.698-3.05-3.698a2.57 2.57 0 0 0-2.306 1.28h-.028v-1.204h-1.438v9.64h1.486v-3.588h.034a2.455 2.455 0 0 0 2.28 1.267zm-.42-6.127c1.157 0 1.915.964 1.915 2.43 0 1.48-.758 2.437-1.914 2.437-1.136 0-1.9-.977-1.9-2.437 0-1.446.764-2.43 1.9-2.43zm18.021-1.192v-1.714h-1.494v1.714h-1.053v1.178h1.053v4.151c0 1.405.572 1.956 2.038 1.956.277.005.554-.018.826-.069v-1.17a4.65 4.65 0 0 1-.489.034c-.605 0-.881-.289-.881-.91v-3.992h1.377v-1.178h-1.377zm2.174 3.622c0-2.279 1.342-3.71 3.435-3.71 2.1 0 3.436 1.431 3.436 3.71 0 2.286-1.329 3.711-3.436 3.711-2.106 0-3.435-1.425-3.435-3.71zm5.356 0c0-1.563-.716-2.486-1.92-2.486-1.205 0-1.921.93-1.921 2.486 0 1.57.716 2.486 1.92 2.486 1.205 0 1.921-.916 1.921-2.486zm4.159-3.622h-1.418v7.244h1.487v-4.297a1.497 1.497 0 0 1 1.549-1.666c.226-.007.452.023.668.09v-1.391a2.291 2.291 0 0 0-.51-.056 1.728 1.728 0 0 0-1.742 1.309h-.034v-1.233zm9.14 5.116c-.2 1.315-1.48 2.217-3.119 2.217-2.107 0-3.415-1.411-3.415-3.676 0-2.273 1.315-3.746 3.353-3.746 2.004 0 3.264 1.377 3.264 3.573v.51h-5.116v.09a1.886 1.886 0 0 0 1.949 2.05 1.64 1.64 0 0 0 1.672-1.018h1.412zM87.955 20.1h3.621a1.742 1.742 0 0 0-1.776-1.838 1.833 1.833 0 0 0-1.845 1.838z" fill="#007A97"/></g><defs><filter id="filter0_d" x="-6" y="-4" width="113.206" height="44" filterUnits="userSpaceOnUse" color-interpolation-filters="sRGB"><feFlood flood-opacity="0" result="BackgroundImageFix"/><feColorMatrix in="SourceAlpha" values="0 0 0 0 0 0 0 0 0 0 0 0 0 0 0 0 0 0 127 0"/><feOffset dy="2"/><feGaussianBlur stdDeviation="3"/><feColorMatrix values="0 0 0 0 0.117647 0 0 0 0 0.117647 0 0 0 0 0.117647 0 0 0 0.16 0"/><feBlend in2="BackgroundImageFix" result="effect1_dropShadow"/><feBlend in="SourceGraphic" in2="effect1_dropShadow" result="shape"/></filter><clipPath id="clip0"><path fill="#fff" d="M0 0h101.206v32H0z"/></clipPath></defs></svg>