<svg width="30" height="30" fill="none" xmlns="http://www.w3.org/2000/svg"><path fill-rule="evenodd" clip-rule="evenodd" d="M27.667 15c0 6.996-5.672 12.667-12.667 12.667-6.996 0-12.667-5.67-12.667-12.667 0-6.996 5.671-12.666 12.668-12.666 6.994 0 12.666 5.67 12.666 12.666zm2 0c0 8.1-6.567 14.667-14.667 14.667S.334 23.1.334 15C.333 6.9 6.9.333 15.001.333 23.1.333 29.666 6.9 29.666 15zm-13.907.642v6.691h-2.592v-6.69H11v-2.607h2.168v-1.924c0-2.231 1.312-3.446 3.23-3.446.916 0 1.706.07 1.935.103v2.332h-1.328c-1.042 0-1.245.514-1.245 1.269v1.666h2.486l-.324 2.606H15.76z" fill="#fff"/></svg>