<svg width="30" height="30" fill="none" xmlns="http://www.w3.org/2000/svg"><path fill-rule="evenodd" clip-rule="evenodd" d="M27.667 15c0 6.996-5.672 12.667-12.667 12.667-6.996 0-12.667-5.67-12.667-12.667 0-6.996 5.671-12.666 12.668-12.666 6.994 0 12.666 5.67 12.666 12.666zm2 0c0 8.1-6.567 14.667-14.667 14.667S.334 23.1.334 15C.333 6.9 6.9.333 15.001.333 23.1.333 29.666 6.9 29.666 15zm-8.74 4.545c.1-.262.222-.659.256-1.394.037-.824.045-1.07.045-3.151 0-2.08-.008-2.327-.045-3.15-.034-.736-.155-1.132-.257-1.396a2.27 2.27 0 0 0-.545-.836 2.228 2.228 0 0 0-.836-.543c-.263-.103-.659-.224-1.394-.258-.823-.036-1.07-.045-3.151-.045-2.082 0-2.33.009-3.152.045-.735.034-1.132.155-1.394.258-.34.13-.582.288-.836.544a2.254 2.254 0 0 0-.545.835c-.102.264-.223.66-.256 1.395-.039.823-.046 1.07-.046 3.151 0 2.082.007 2.328.046 3.15.033.736.154 1.134.256 1.396.132.34.29.582.545.836.255.255.496.413.836.544.262.102.659.224 1.394.257.821.038 1.067.046 3.152.046 2.084 0 2.33-.008 3.15-.046.736-.033 1.132-.155 1.395-.257.34-.13.581-.29.836-.544.254-.254.413-.497.545-.837zm1.65-9.732c.224.578.34 1.18.376 1.955.038.838.047 1.117.047 3.232 0 2.116-.009 2.394-.047 3.232-.037.775-.152 1.378-.376 1.956a4.028 4.028 0 0 1-.942 1.447c-.43.43-.877.72-1.448.942-.578.225-1.18.342-1.956.377-.839.037-1.117.046-3.231.046s-2.393-.009-3.232-.046c-.777-.035-1.379-.152-1.955-.377a4 4 0 0 1-1.449-.942 4.033 4.033 0 0 1-.942-1.447c-.225-.579-.34-1.182-.376-1.956C7.008 17.395 7 17.116 7 15s.008-2.394.046-3.232c.036-.774.151-1.376.376-1.955.222-.57.513-1.018.942-1.448a4 4 0 0 1 1.449-.942c.576-.224 1.18-.34 1.955-.376C12.603 7.01 12.88 7 15 7s2.397.01 3.23.047c.776.035 1.38.152 1.957.376.57.221 1.018.512 1.448.942.43.43.72.877.942 1.448zm-3.404 2.133a1.12 1.12 0 0 1 0-2.24 1.12 1.12 0 0 1 0 2.24zm-4.174 5.478a2.426 2.426 0 0 1 0-4.849 2.426 2.426 0 0 1 0 4.85zm0-6.621A4.202 4.202 0 0 0 10.803 15 4.201 4.201 0 0 0 15 19.197 4.201 4.201 0 0 0 19.196 15a4.202 4.202 0 0 0-4.197-4.197z" fill="#fff"/></svg>