<?xml version="1.0" encoding="UTF-8"?>
<svg width="22px" height="34px" viewBox="0 0 22 34" version="1.1" xmlns="http://www.w3.org/2000/svg" xmlns:xlink="http://www.w3.org/1999/xlink">
    <!-- Generator: Sketch 49.2 (51160) - http://www.bohemiancoding.com/sketch -->
    <title>Artboard</title>
    <desc>Created with Sketch.</desc>
    <defs>
        <polygon id="path-1" points="0 0 22 0 22 34 0 34"></polygon>
    </defs>
    <g id="Artboard" stroke="none" stroke-width="1" fill="none" fill-rule="evenodd">
        <g id="Page-1-Copy">
            <mask id="mask-2" fill="white">
                <use xlink:href="#path-1"></use>
            </mask>
            <g id="Clip-2"></g>
            <path d="M15.1014828,25.3326174 L17.5552414,31.0047123 L12.3279655,27.2997777 L15.1014828,25.3326174 Z M6.89889655,25.3326174 L9.67241379,27.2997777 L4.44513793,31.0047123 L6.89889655,25.3326174 Z M11,15.8351023 L14.4733448,23.8844722 L11,26.3582903 L7.52703448,23.8844722 L11,15.8351023 Z M10.8934138,13.1442555 C10.630931,13.1809418 10.406,13.3547193 10.300931,13.6026417 L1.95610345,32.9112436 C1.78465517,33.300505 1.95534483,33.7573466 2.33768966,33.9322825 C2.58537931,34.0454309 2.87403448,34.0149233 3.09403448,33.8523449 L11,28.240879 L18.9063448,33.8523449 C19.2454483,34.1033567 19.7199655,34.0265085 19.9661379,33.6812707 C20.1258276,33.4572909 20.1554138,33.163414 20.0442759,32.9112436 L11.6994483,13.6026417 C11.5636552,13.2817327 11.2332759,13.093667 10.8934138,13.1442555 Z M11,5.03425653 C9.53358621,5.03425653 8.3452069,6.2445197 8.3452069,7.7374608 C8.3452069,9.23078807 9.53358621,10.4406651 11,10.4406651 C12.4667931,10.4406651 13.6551724,9.23078807 13.6551724,7.7374608 C13.6551724,6.2445197 12.4667931,5.03425653 11,5.03425653 Z M15.1014828,1.93290889 C14.6842414,1.97229844 14.377,2.34804383 14.4153103,2.77283307 C14.4338966,2.97711808 14.5313793,3.16595621 14.6865172,3.29648236 C15.9158621,4.35845546 16.6896552,5.9599109 16.6896552,7.7374608 C16.6896552,9.51539686 15.9158621,11.104881 14.6865172,12.1664679 C14.3352759,12.3993296 14.2358966,12.8777968 14.4642414,13.2353921 C14.6929655,13.5929874 15.162931,13.6937783 15.5141724,13.4613027 C15.5672759,13.4261611 15.6154483,13.3848407 15.6586897,13.3373415 C17.2191724,11.9899873 18.2072759,9.97532776 18.2072759,7.7374608 C18.2072759,5.49998001 17.2191724,3.47334915 15.6586897,2.12599491 C15.5058276,1.98813149 15.3051724,1.91823435 15.1014828,1.93290889 Z M6.80406897,1.93290889 C6.633,1.94256319 6.47027586,2.0101433 6.34168966,2.12599491 C4.7812069,3.47334915 3.79348276,5.49998001 3.79348276,7.7374608 C3.79348276,9.97532776 4.7812069,11.9899873 6.34168966,13.3373415 C6.62541379,13.6509132 7.10562069,13.6713803 7.41362069,13.3825237 C7.722,13.0932808 7.74210345,12.6047732 7.458,12.2908153 C7.41513793,12.2433161 7.36658621,12.2016096 7.31386207,12.1664679 C6.08451724,11.104881 5.31072414,9.51539686 5.31072414,7.7374608 C5.31072414,5.9599109 6.08451724,4.35845546 7.31386207,3.29648236 C7.63475862,3.02268638 7.67648276,2.53533727 7.4067931,2.20824955 C7.25772414,2.02752104 7.03582759,1.92634397 6.80406897,1.93290889 Z M18.5391724,0.00204869901 C18.1204138,0.0248328493 17.7991379,0.388606909 17.8218966,0.814554667 C17.8313793,0.997986386 17.9049655,1.17253615 18.0293793,1.30537933 C19.5602759,3.02500341 20.4831379,5.24008623 20.4831379,7.7374608 C20.4831379,10.2352215 19.5602759,12.4503044 18.0293793,14.1699284 C17.7175862,14.4549234 17.6921724,14.943431 17.9721034,15.2608644 C18.2527931,15.5779117 18.7322414,15.6041714 19.0440345,15.3184041 C19.0804483,15.2848071 19.1138276,15.2481208 19.1434138,15.2075727 C20.9075862,13.226124 22,10.6275723 22,7.7374608 C22,4.84773543 20.9075862,2.24918379 19.1434138,0.267735061 C18.992069,0.0900959237 18.7697931,-0.00760560195 18.5391724,0.00204869901 Z M3.36675862,0.00204869901 C3.16913793,0.0194264407 2.98631034,0.114810934 2.85696552,0.267735061 C1.0927931,2.24918379 0,4.84773543 0,7.7374608 C0,10.6275723 1.0927931,13.226124 2.85696552,15.2075727 C3.10806897,15.5489488 3.58372414,15.6180736 3.91903448,15.3624277 C4.25434483,15.1063956 4.32224138,14.6221359 4.07075862,14.2807598 C4.04117241,14.2405979 4.0077931,14.2035254 3.971,14.1699284 C2.44010345,12.4503044 1.51724138,10.2352215 1.51724138,7.7374608 C1.51724138,5.24008623 2.44010345,3.02500341 3.971,1.30537933 C4.26003448,0.996441697 4.24865517,0.507934069 3.9452069,0.213284804 C3.79044828,0.062677709 3.57993103,-0.0137843546 3.36675862,0.00204869901 Z" id="Fill-1" fill="#FEFEFE" mask="url(#mask-2)"></path>
        </g>
    </g>
</svg>