<?xml version="1.0" encoding="UTF-8"?>
<svg width="25px" height="20px" viewBox="0 0 25 20" version="1.1" xmlns="http://www.w3.org/2000/svg" xmlns:xlink="http://www.w3.org/1999/xlink">
    <!-- Generator: Sketch 51.3 (57544) - http://www.bohemiancoding.com/sketch -->
    <title>decouvrir_emissions</title>
    <desc>Created with Sketch.</desc>
    <defs></defs>
    <g id="decouvrir_emissions" stroke="none" stroke-width="1" fill="none" fill-rule="evenodd">
        <g id="Group-7-Copy" fill="#FFFFFF" fill-rule="nonzero">
            <path d="M7.57575758,6.53030303 L23.6060606,6.53030303 C24.1834492,6.53030303 24.6515152,6.99836897 24.6515152,7.57575758 L24.6515152,18.7272727 C24.6515152,19.3046613 24.1834492,19.7727273 23.6060606,19.7727273 L7.57575758,19.7727273 C6.99836897,19.7727273 6.53030303,19.3046613 6.53030303,18.7272727 L6.53030303,7.57575758 C6.53030303,6.99836897 6.99836897,6.53030303 7.57575758,6.53030303 Z" id="Rectangle-8"></path>
            <path d="M4.13636364,16.3333333 C4.13636364,16.5257962 3.98034166,16.6818182 3.78787879,16.6818182 C3.59541592,16.6818182 3.43939394,16.5257962 3.43939394,16.3333333 L3.43939394,5.18181818 C3.43939394,4.21950384 4.21950384,3.43939394 5.18181818,3.43939394 L21.2121212,3.43939394 C21.4045841,3.43939394 21.5606061,3.59541592 21.5606061,3.78787879 C21.5606061,3.98034166 21.4045841,4.13636364 21.2121212,4.13636364 L5.18181818,4.13636364 C4.60442958,4.13636364 4.13636364,4.60442958 4.13636364,5.18181818 L4.13636364,16.3333333 Z" id="Rectangle-8-Copy" stroke="#FFFFFF" stroke-width="0.5"></path>
            <path d="M1.04545455,13.2424242 C1.04545455,13.4348871 0.889432564,13.5909091 0.696969697,13.5909091 C0.50450683,13.5909091 0.348484848,13.4348871 0.348484848,13.2424242 L0.348484848,2.78787879 C0.348484848,1.44063872 1.44063872,0.348484848 2.78787879,0.348484848 L18.1212121,0.348484848 C18.313675,0.348484848 18.469697,0.50450683 18.469697,0.696969697 C18.469697,0.889432564 18.313675,1.04545455 18.1212121,1.04545455 L2.78787879,1.04545455 C1.82556445,1.04545455 1.04545455,1.82556445 1.04545455,2.78787879 L1.04545455,13.2424242 Z" id="Rectangle-8-Copy-2" stroke="#FFFFFF" stroke-width="0.5"></path>
        </g>
    </g>
</svg>