<?xml version="1.0" encoding="UTF-8" standalone="no"?>
<!-- Created with Inkscape (http://www.inkscape.org/) -->
<svg id="svg2" xmlns:rdf="http://www.w3.org/1999/02/22-rdf-syntax-ns#" xmlns="http://www.w3.org/2000/svg" height="549.22" width="549.21" version="1.1" xmlns:cc="http://creativecommons.org/ns#" xmlns:dc="http://purl.org/dc/elements/1.1/">
 <metadata id="metadata7">
  <rdf:RDF>
   <cc:Work rdf:about="">
    <dc:format>image/svg+xml</dc:format>
    <dc:type rdf:resource="http://purl.org/dc/dcmitype/StillImage"/>
    <dc:title/>
   </cc:Work>
  </rdf:RDF>
 </metadata>
 <g id="layer1" transform="translate(300.32 -457.75)">
  <path id="path4489" d="m-300.32 1007h460.63v-460.63h-460.63v460.63z" fill-rule="evenodd"/>
  <path id="path4495" d="m-211.74 918.38h460.63v-460.63h-460.63v460.63z" fill-rule="evenodd" fill="#0078d7"/>
  <path id="path4491" d="m307.28 224.34c-4.86 0-10.08 1.9-12.87 6.04-2.25 3.42-2.07 8.19-2.07 12.15h-5.31v10.28h5.31v34.28h13.22v-34.28h8.1v-10.28h-8.1v-0.97c0-3.87-0.01-6.68 4.22-6.68 2.07 0 3.08 0 5.06 0.28v-10.16c-2.78-0.54-6.48-0.66-7.56-0.66zm32.88 16.1c-5.05 0.2-7.49 4.91-8.75 9.47h-0.19v-8.53h-12.34v45.71h13.24v-17.47c0-8.1 1.24-16.28 11.32-15.74v-13.22l-2.25-0.19c-0.36-0.03-0.7-0.05-1.03-0.03zm28.03 0.03c-9.63 0-20.4 3.24-21.75 14.31l12.5 1.16c0-4.5 3.68-6.66 7.9-6.66 1.98 0 4.24 0.63 5.41 2.16 1.35 1.71 1.16 4.05 1.16 6.03v1.09c-5.58 0.54-12.85 0.9-18.07 2.88-6.03 2.25-10.28 6.84-10.28 13.59 0 8.64 6.31 12.97 14.41 12.97 6.84 0 10.81-2.63 14.59-8.03-0.09 2.34 0.09 4.78 0.63 7.12h13.12c-0.72-2.25-0.87-4.5-0.87-6.84v-21.34c0-5.49 0.43-10.53-4.25-14.32-3.69-3.06-9.82-4.12-14.5-4.12zm51.31 0c-6.66 0-10.42 2.8-13.12 8.65h-0.19v-7.74h-12.53v45.71h13.25v-24.56c0-2.88 0.18-5.51 1.53-8.12 1.08-2.07 3.22-3.41 5.56-3.41 6.66 0 6.03 6.85 6.03 11.53v24.56h13.25v-28.25c0-4.14-0.01-9.92-2.53-13.34-2.7-3.69-6.93-5.03-11.25-5.03zm40.94 0c-14.4 0-22.85 10.18-22.85 24.22 0 13.5 8.21 23.31 22.07 23.31 11.16 0 19.7-6.75 20.78-18.09l-12.6-0.72c-0.45 4.23-2.78 7.9-7.46 7.9-7.56 0-7.66-7.92-7.66-13.5 0-5.85 0.9-13.03 8.19-13.03 4.77 0 6.93 4.05 6.93 8.19l12.6-0.72c-0.9-10.71-9.38-17.56-20-17.56zm45 0c-14.22 0-22.22 10.87-22.22 24.37 0 13.59 8.91 23.16 22.59 23.16 15.48 0 20.78-13.5 20.78-15.75l-12.25-0.91c0 4.24-4.04 7.19-8.09 7.19-5.76 0-8.81-4.41-8.81-9.81l0.09-2.25h29.35c0.08-6.21-0.91-12.69-4.69-17.91s-10.36-8.09-16.75-8.09zm0.56 8.65c5.76 0 7.36 4.59 7.62 9.54h-16.18c0.45-5.22 2.71-9.54 8.56-9.54zm-395.06 13.72v175.66h20.5c2.3-6.91 3.82-14.34 8.44-19.97 9.47 15.62 18.43 22.53 37.12 22.53 39.18 0 52.75-33.54 52.75-67.59 0-30.73-11.28-67.59-48.41-67.59-14.59 0-25.34 6.13-31.75 18.93h-1v-61.97h-37.65zm126.5 0v175.66h37.62v-175.66h-37.62zm135.97 2.38v1.81c0 3.24 0.11 5.93-1.79 8.81-1.53 2.34-3.95 3.78-6.65 3.78-3.69 0-5.85-2.43-5.85-6.03 0-6.66 9.25-7.83 14.29-8.37zm-26.63 40.66c-40.46 0-63.25 30.99-63.25 69.4 0 38.67 25.33 65.78 64.25 65.78 44.04 0 59.16-38.41 59.16-44.81l-34.82-2.53c0 12.03-11.53 20.47-23.06 20.47-16.39 0-25.09-12.55-25.09-27.91l0.28-6.4h83.47c0.26-17.67-2.56-36.12-13.31-50.97-10.76-14.85-29.45-23.03-47.63-23.03zm69.63 2.56v81.94c0 12.54-0.77 24.82 6.4 36.09 7.43 11.78 18.69 14.59 31.75 14.59 17.67 0 30.98-8.42 37.13-24.81h0.53v22.25h34.81v-130.06h-37.62v69.9c0 6.66 0.49 14.08-2.07 19.97-3.32 7.68-10.48 12.57-18.93 12.57-13.32 0-14.35-10.01-14.35-20.5v-81.94h-37.65zm-68.1 22.03c16.39 0 20.98 13.04 21.75 27.12h-46.09c1.28-14.85 7.7-27.12 24.34-27.12zm-178.47 1.28c20.74 0 20.72 27.12 20.72 41.72 0 14.08 0 41.22-21.25 41.22-6.91 0-12.29-3.31-15.87-8.94-4.1-6.4-4.35-14.61-4.35-21.78v-18.69c0-13.82 2.57-33.53 20.75-33.53zm-81.246 98.78l-20.313 1.56 0.313 40.38s24.415 1.26 30.187 1.62c5.759 0.37 11.909 0.49 13.749 7.44 1.99 7.55-6.87 13.06-9.87 13.06 9.09 0 7.05-0.03 13.87-0.03 5.56-1.02 11.86-7.69 11.06-17.65-1.05-13.16-11.15-16.29-21.9-16.29h-17.096v-30.09zm-48.188 38.19c-3.691 4.46-7.363 11.28-5.25 18.9 6.318 21.33 40.256 30.75 54.532 31.32l-1.657-24.97s-23.192 3.06-34.906-9.22c-4.971-5.2-3.96-10.67-0.219-15.41-4.383-0.2-9.553-0.49-12.5-0.62z" transform="translate(-300.32 457.75)" fill="#fff"/>
 </g>
</svg>
