<?xml version="1.0" encoding="UTF-8"?>
<svg width="26px" height="33px" viewBox="0 0 26 33" version="1.1" xmlns="http://www.w3.org/2000/svg" xmlns:xlink="http://www.w3.org/1999/xlink">
    <!-- Generator: Sketch 60 (88103) - https://sketch.com -->
    <title>noun_voting_1597585</title>
    <desc>Created with Sketch.</desc>
    <g id="Pages" stroke="none" stroke-width="1" fill="none" fill-rule="evenodd">
        <g id="burgermenu_elections" transform="translate(-38.000000, -549.000000)" fill="#FFFFFF" fill-rule="nonzero">
            <g id="noun_voting_1597585" transform="translate(38.000000, 549.000000)">
                <g id="Group">
                    <path d="M17.1580591,1.85812453 C14.5632508,2.91230976 11.7858248,4.34684494 8.66666745,5.85855475 C7.09090988,7.88713112 6.69697048,12.3500081 6.30303109,15.5957083 L10.6363644,9.91569531 L14.5757584,13.9728562 C12.6060614,16.4071324 10.6363644,18.0299805 11.4242432,19.2471572 C12.212122,20.0585812 13.3939402,19.6528692 14.5757584,18.4357331 C18.1138447,15.1975907 20.4848477,13.9728562 20.4848477,9.91569531 L25.9999992,7.05782162 L25.9999992,0.160672521 C23.2891876,0.0279490506 19.5746543,0.887843302 17.1580591,1.85812453 Z" id="Path"></path>
                    <path d="M10.7522824,11.8511795 L7.28929532,16.3787806 C6.96959027,16.7974137 6.40212809,16.9503818 5.91714768,16.8031235 L0.62145465,23.6612215 L6.66104433,29.3373771 L10.9122247,29.3373771 L19.4675996,19.2675688 L17.6630072,17.4090342 L16.1208322,18.7529968 C15.9727614,18.8831101 15.8345679,19.0051041 15.7150114,19.1115008 L15.46378,19.3372372 L15.2369087,19.5627253 C14.5643636,20.2075169 13.9007117,20.6288702 13.1886317,20.8288554 C12.2484928,21.0929637 11.2144618,20.8468551 10.532389,20.1445321 C10.474283,20.0836688 10.4222615,20.0166395 10.3805487,19.9501821 C9.99672165,19.3572133 9.90694236,18.5835557 10.1037886,17.9038341 C10.2583472,17.3701356 10.529502,16.8854764 10.9636052,16.3008137 L11.1872381,16.0082817 C11.3060447,15.8569321 11.436341,15.6966103 11.5826465,15.5212557 L11.8979424,15.1487073 L12.8675832,14.0295597 L10.7522824,11.8511795 Z" id="Path"></path>
                    <polygon id="Path" points="7.87880228e-07 31.1002199 7.87880228e-07 32.7231086 22.8484841 32.7409778 22.8484841 31.1180891"></polygon>
                </g>
            </g>
        </g>
    </g>
</svg>