<?xml version="1.0" encoding="utf-8"?>
<!-- Generator: Adobe Illustrator 21.0.2, SVG Export Plug-In . SVG Version: 6.00 Build 0)  -->
<svg version="1.1" id="Calque_1" xmlns="http://www.w3.org/2000/svg" xmlns:xlink="http://www.w3.org/1999/xlink" x="0px" y="0px"
	 viewBox="0 0 130 21" style="enable-background:new 0 0 130 21;" xml:space="preserve">
<style type="text/css">
	.st0{fill:#FFC300;}
	.st1{fill:#1E1E1E;}
</style>
<title>logo_franceinfoPlan de travail 1</title>
<g id=":">
	<circle class="st0" cx="127.6" cy="9.5" r="2.3"/>
	<circle class="st0" cx="127.6" cy="18.2" r="2.3"/>
</g>
<g id="franceinfo">
	<path class="st1" d="M10.3,4.4c-0.3-0.1-0.7-0.1-1-0.1C8.6,4.2,7.9,4.5,7.4,5C7,5.6,6.8,6.3,6.9,7v0.4h3.9v2.9H6.9v9.9H3.5v-9.9
		H0.2V7.4h3.3V6.9c0-2,0.5-3.3,1.4-4.2c1.1-1,2.5-1.6,4-1.5c0.7,0,1.3,0.1,2,0.2L10.3,4.4z"/>
	<path class="st1" d="M20.2,10.5c-0.4-0.1-0.8-0.1-1.2-0.1c-1.3,0-2.4,0.7-3.1,1.8v8h-3.4V7.4h3.3v1.3c0.9-1,2.3-1.6,3.7-1.5
		c0.4,0,0.8,0,1.2,0.1L20.2,10.5z"/>
	<path class="st1" d="M34,20.2h-3.3v-1c-1,0.8-2.2,1.3-3.5,1.3c-1.8,0-3.6-0.8-4.8-2.2c-1.1-1.2-1.6-2.8-1.6-4.5
		c-0.1-3.5,2.6-6.5,6.1-6.6c0,0,0.1,0,0.1,0c1.4,0,2.7,0.4,3.7,1.3v-1H34V20.2z M30.6,11.9c-0.7-1-1.9-1.6-3.1-1.6
		c-1.8,0-3.3,1.5-3.3,3.4c0,0,0,0.1,0,0.1c-0.1,1.8,1.3,3.4,3.2,3.5c0.1,0,0.1,0,0.2,0c1.2,0,2.4-0.6,3.1-1.6V11.9z"/>
	<path class="st1" d="M36.9,20.2V7.4h3.3v1c1-0.8,2.3-1.3,3.6-1.3c1.7,0,3.3,0.7,4.4,2.1c1,1.3,1.4,2.9,1.3,4.5v6.5h-3.4v-6.8
		c0.1-0.9-0.2-1.7-0.8-2.4c-0.5-0.5-1.2-0.7-1.9-0.7c-1.2,0-2.4,0.6-3.1,1.6v8.3H36.9z"/>
	<path class="st1" d="M63.7,17.6c-1.3,1.9-3.5,2.9-5.8,2.9c-3.7,0.1-6.8-2.7-6.9-6.4s2.7-6.8,6.4-6.9c0.2,0,0.3,0,0.5,0
		c2.1,0,4.1,0.9,5.4,2.6l-2.4,2.1c-0.7-0.9-1.8-1.5-2.9-1.5c-1.9,0-3.4,1.5-3.4,3.4c0,0,0,0.1,0,0.1c-0.1,1.9,1.4,3.4,3.3,3.5
		c0.1,0,0.2,0,0.3,0c1.2,0,2.3-0.7,3-1.7L63.7,17.6z"/>
	<path class="st1" d="M76.1,18.2c-1.3,1.5-3.2,2.3-5.2,2.3c-3.5,0.2-6.5-2.5-6.7-6.1c0-0.2,0-0.4,0-0.6c0-3.6,2.4-6.7,6.2-6.7
		c3.5,0,6,3,6,6.5c0,0.3,0,0.7-0.1,1h-8.8c0.2,1.7,1.7,3.1,3.4,3c1.2,0,2.4-0.6,3.2-1.5L76.1,18.2z M72.9,12.2
		c-0.2-1.3-1.3-2.2-2.5-2.2c-1.3,0-2.5,0.9-2.7,2.2L72.9,12.2z"/>
	<path class="st1" d="M80,0.8c1.2,0,2.2,1,2.1,2.2c0,1.2-1,2.2-2.2,2.1c-1.2,0-2.1-1-2.1-2.2C77.8,1.7,78.8,0.7,80,0.8
		C80,0.7,80,0.7,80,0.8z M81.7,20.2h-3.4V7.4h3.4V20.2z"/>
	<path class="st1" d="M84.6,20.2V7.4h3.3v1c1-0.8,2.3-1.3,3.6-1.3c1.7,0,3.3,0.7,4.4,2.1c1,1.3,1.4,2.9,1.3,4.5v6.5h-3.4v-6.8
		c0.1-0.9-0.2-1.7-0.8-2.4c-0.5-0.5-1.2-0.7-1.9-0.7c-1.2,0-2.3,0.6-3.1,1.6v8.3H84.6z"/>
	<path class="st1" d="M108.2,4.4c-0.3-0.1-0.7-0.1-1-0.1c-0.7-0.1-1.4,0.2-1.9,0.7c-0.4,0.6-0.6,1.3-0.5,2v0.4h3.9v2.9h-4v9.9h-3.4
		v-9.9h-3.3V7.4h3.3V6.9c0-2,0.5-3.3,1.4-4.2c1.1-1,2.5-1.6,4-1.5c0.7,0,1.3,0.1,2,0.2L108.2,4.4z"/>
	<path class="st1" d="M115.8,7.2c3.7,0.1,6.6,3.1,6.5,6.8c-0.1,3.7-3.1,6.6-6.8,6.5c-3.6-0.1-6.5-3-6.5-6.6c0-3.7,3-6.6,6.6-6.7
		C115.7,7.2,115.7,7.2,115.8,7.2z M115.8,17.3c1.8,0,3.3-1.5,3.4-3.3c0-0.1,0-0.1,0-0.2c0.1-1.9-1.3-3.4-3.2-3.5
		c-1.9-0.1-3.4,1.3-3.5,3.2c0,0.1,0,0.2,0,0.4c-0.1,1.8,1.3,3.4,3.2,3.5C115.7,17.3,115.7,17.3,115.8,17.3z"/>
</g>
</svg>
